<svg width="42" height="42" viewBox="0 0 42 42" fill="none" xmlns="http://www.w3.org/2000/svg">
<path d="M0 10C0 4.47715 4.47715 0 10 0H32C37.5228 0 42 4.47715 42 10V32C42 37.5228 37.5228 42 32 42H10C4.47715 42 0 37.5228 0 32V10Z" fill="#EEF2FF"/>
<path d="M29.25 24.6667V17.3333C29.2497 17.0118 29.1648 16.6961 29.0039 16.4177C28.843 16.1394 28.6118 15.9082 28.3333 15.7475L21.9167 12.0808C21.638 11.9199 21.3218 11.8352 21 11.8352C20.6782 11.8352 20.362 11.9199 20.0833 12.0808L13.6667 15.7475C13.3882 15.9082 13.157 16.1394 12.9961 16.4177C12.8352 16.6961 12.7503 17.0118 12.75 17.3333V24.6667C12.7503 24.9882 12.8352 25.3039 12.9961 25.5823C13.157 25.8606 13.3882 26.0917 13.6667 26.2525L20.0833 29.9192C20.362 30.0801 20.6782 30.1648 21 30.1648C21.3218 30.1648 21.638 30.0801 21.9167 29.9192L28.3333 26.2525C28.6118 26.0917 28.843 25.8606 29.0039 25.5823C29.1648 25.3039 29.2497 24.9882 29.25 24.6667Z" stroke="#4F6EF7" stroke-width="1.83333"/>
</svg>
