<svg width="30" height="30" viewBox="0 0 30 30" fill="none" xmlns="http://www.w3.org/2000/svg">
<path d="M0 7C0 3.13401 3.13401 0 7 0H23C26.866 0 30 3.13401 30 7V23C30 26.866 26.866 30 23 30H7C3.13401 30 0 26.866 0 23V7Z" fill="#EEF2FF"/>
<path d="M20.0109 15.8225L15.8284 20.005C15.72 20.1134 15.5913 20.1995 15.4497 20.2582C15.3081 20.3169 15.1563 20.3471 15.0029 20.3471C14.8496 20.3471 14.6978 20.3169 14.5562 20.2582C14.4145 20.1995 14.2859 20.1134 14.1775 20.005L9.16669 15V9.16663H15L20.0109 14.1775C20.2281 14.396 20.3501 14.6917 20.3501 15C20.3501 15.3082 20.2281 15.6039 20.0109 15.8225Z" stroke="#4F6EF7" stroke-width="1.16667"/>
<path d="M12.0833 12.0834H12.0891" stroke="#4F6EF7" stroke-width="1.16667"/>
</svg>
